<?xml version="1.0" encoding="UTF-8"?>
<svg id="_레이어_2" data-name="레이어 2" xmlns="http://www.w3.org/2000/svg" viewBox="0 0 234.05 103.11">
  <defs>
    <style>
      .cls-1 {
        fill: #fff;
      }

      .cls-1, .cls-2 {
        stroke-width: 0px;
      }

      .cls-2 {
        fill: lime;
      }
    </style>
  </defs>
  <g id="_레이어_1-2" data-name="레이어 1">
    <g>
      <path class="cls-1" d="M25.85,58.69c0-12.26-.25-13.48-.34-13.91-.18-.72-.69-1.19-1.44-1.31-.73-.12-1.38.17-1.74.77-.23.38-.37,1.07-.27,3.25.04,1.68.09,3.73.16,6.14.19,10.81.63,12.97,1,13.64.28.53.62.83,1.02.93.08.02.18.04.28.04.2,0,.43-.05.67-.21.77-.49,1.04-1.48.82-2.94-.04-.24-.11-1.39-.15-6.4Z"/>
      <path class="cls-1" d="M7.99,49.78c-.13-.21-.37-.46-1.01-.91-.13-.08-.21-.15-.27-.19,0,0,0-.02,0-.03.08-.47.12-1.07-.26-1.45-.27-.27-.68-.38-1.38-.38-.64,0-1.12.07-1.51.24-.37.19-.6.39-.73.65-.1.2-.16.47-.21.92-.03.38-.17.79-.45,1.25-.4.75-.68,1.7-.88,2.9-.24,1.53-.56,2.95-.94,4.23-.35,1.17-.43,2.45-.24,3.79.21,1.47.66,2.44,1.37,2.96.38.28.87.49,1.46.49.89,0,2.01-.48,3.37-1.97,1.38-1.45,2.33-3.53,2.84-6.17.53-2.78.31-4.66-.65-5.7-.22-.29-.39-.5-.5-.65ZM3.31,60.61s0-.04,0-.07c-.06-.48-.02-1.19.13-2.14.16-.99.41-2.16.76-3.5.21-.9.36-1.51.44-1.86.14-.83.35-1.09.43-1.16.03.02.09.05.17.12.21.22.32.46.32.75s.1.73.3,1.29c.12.37.17,1.08-.22,2.42-.33,1.15-.81,2.19-1.42,3.1-.42.62-.71.9-.9,1.03Z"/>
      <path class="cls-1" d="M42.9,59.61c-1.41.29-2.86.67-4.32,1.15-.91.31-2.11.67-3.57,1.05l-.64.16-.16.06c-.29.15-.58.25-.86.31-.04,0-.07.01-.1.02.04-.24.11-.58.21-1.05.25-1.19.41-1.69.51-1.95.22-.66.42-1.44.6-2.29.23-.91.54-1.78.94-2.64.39-1.02.48-1.29.51-1.42.05-.2.11-.72-.46-1.18-.58-.5-1.31-.52-2.01-.06-.51.33-1.16,1.2-2.45,5.35-.95,3.05-1.49,5.37-1.64,7.1-.05.91.15,1.53.61,1.89.29.23.63.3.97.3.39,0,.78-.1,1.08-.2.64-.18,1.23-.33,1.83-.49.83-.25,1.49-.47,1.96-.65,3.96-1.41,6.62-2.33,7.95-2.72.23-.08.43-.15.59-.23,1.27-.44,1.83-.87,1.93-1.48.04-.23.03-.69-.52-1.12-.38-.25-.96-.31-2.97.1Z"/>
      <path class="cls-1" d="M31.65,51.89c.6-.14,1.01-.22,1.24-.26.74-.15,1.6-.39,2.55-.72,1.31-.45,2.66-.8,4.03-1.04.85-.18,1.18-.27,1.35-.34.17-.04.29-.07.36-.07.29,0,.62-.12,1.16-.41.52-.29.87-.54.99-.9.06-.18.09-.33.09-.48.01-.34-.12-.65-.38-.88-.43-.37-1.22-.65-4.16-.09-4.72.98-7.49,1.66-8.49,2.08-.22.1-.49.15-.79.15-.6,0-1.11.18-1.5.55-.4.37-.61.89-.61,1.48,0,1.04.64,1.34.92,1.42.11.03.26.06.48.06.31,0,.76-.05,1.49-.22.24-.07.67-.17,1.27-.31Z"/>
      <path class="cls-1" d="M63.67,43.76c-.43.03-.82.21-1.16.55-.31.36-.5.79-.57,1.29-.06.39-.12,1.41-.19,3.15v.06c-.14,2.45-.24,2.95-.24,3.01,0,0-.07.05-.24.08h-.11c-.58.09-.95.17-1.24.29-.03.01-.19.07-.85.2-.66.13-.95.15-1.06.15-.34,0-.69.04-1.06.14-.51.15-.88.26-1.01.31-.42.09-.73.2-.96.34-.13.05-.43.16-.95.35-.59.26-.92.41-.99.44l-.06.03c0-.41.03-1.16.15-2.5.19-2.08.41-3.54.64-4.34.29-.93-.03-1.5-.35-1.82-.44-.44-1.04-.58-1.69-.41-.42.11-1,.43-1.38,1.24-.31.62-.68,2.29-.83,9.78-.17,8.6.3,9.07.65,9.41.16.16.63.63,1.23.53.96-.12,1.28-1.32,1.33-4.86,0-2.27.06-2.95.1-3.16.01-.07.02-.11.03-.14.31-.07.67-.22,1.09-.45.43-.2,1.48-.59,3.11-1.15,1.62-.56,2.81-.93,3.51-1.1.3-.06.53-.1.69-.12,0,.15-.01.37-.04.66-.11,1.19-.15,2.85-.11,4.94.04,2.08.13,3.63.27,4.57.16,1.24.2,1.6.21,1.67,0,.52.43.87.57.98.29.24.58.36.87.36.11,0,.22-.02.33-.06.37-.14.84-.47,1.03-1.28.11-.46.14-1.19.1-2.27-.11-3.73-.07-6.48.1-8.17,1.27-11.19.71-11.79.36-12.16-.33-.4-.78-.6-1.27-.56Z"/>
      <path class="cls-1" d="M70.92,49.47c1.73-.93,2.47-1.2,2.72-1.25.08,0,.15-.01.2-.01-.05.11-.16.29-.37.54-.35.49-1.16,1.56-2.5,3.3-1.52,2.04-2.12,3.51-1.9,4.58.05.32.25.77.88,1.07.27.13.54.19.8.19.16,0,.32-.02.48-.07.21-.06.51-.13.87-.19.86-.12,2.57-.75,5.22-1.93,3.57-1.57,4.94-2.07,5.42-2.2.53-.12,2.14-.5,2.24-1.8,0-.33-.14-.62-.39-.82-.39-.31-.96-.35-1.91-.13-1.03.22-2.03.52-2.98.91-.38.17-.84.36-1.4.57-.79.3-1.22.47-1.27.5-.25.11-.92.37-2.72.93-.35.11-.64.2-.89.28.25-.34.58-.78,1.04-1.34.68-.86,1.27-1.61,1.79-2.27.33-.46.62-.83.88-1.08.54-.54.8-1.12.77-1.7-.03-.6-.37-1.16-1.02-1.68-.19-.14-.31-.25-.39-.32.1-.15.29-.4.66-.81.47-.51.77-.99.93-1.47.15-.45.24-1.13.28-2.09.09-1.53-.36-2.62-1.34-3.24h0c-.9-.57-2.21-.71-4.03-.43-1.74.3-3.15.72-4.2,1.25-.46.24-1.88.96-1.88,2.22,0,1.12.67,1.46.95,1.54.51.16,1.1.02,1.81-.44.37-.25.52-.3.5-.3.16,0,.37-.03,1.42-.36,1.47-.52,1.62-.59,1.61-.59h0c.41-.15.89-.22,1.44-.2.41.01.62.06.7.08.11.26-.07.68-.24.99-.38.69-.97,1.29-1.78,1.81-.53.38-1.03.8-1.51,1.29-.27.29-.68.6-1.23.92-.74.42-.98.44-.99.44-.43,0-.92.22-1.59.7-.68.49-1.04.91-1.17,1.36-.11.44-.1.83.02,1.11.14.42.43.73.83.89.72.29,1.72.06,3.23-.74Z"/>
      <path class="cls-1" d="M95.34,64.35c-.74-.03-2.3.15-4.76.57-2.41.41-4.38.84-5.83,1.27-.71.18-1.46.35-2.28.53-1.48.32-2.74.65-3.78.99-.22.08-.39.13-.52.17-.01-.25-.01-.65.03-1.31.03-1.22.21-2.44.51-3.61.32-1.15.6-2.23.81-3.19.27-1.22.36-1.46.37-1.48l.05-.12c.2-.66.22-1.14.05-1.52-.3-.66-1.08-.79-1.29-.82-.58-.12-1.14.05-1.57.51-.33.35-.59.84-.76,1.47-.14.52-.35,1.2-.64,2.06-.44,1.46-.76,3-.96,4.55-.2,1.59-.23,2.92-.07,4.01.05.21.07.35.08.45-.2.09-.59.26-1.35.54-.32.11-.75.25-1.26.43-.76.26-.89.32-.89.32-.52.19-.99.37-1.43.57-.85.43-1.82,1.04-1.86,1.92-.01.27.07.79.7,1.18.21.14.48.25.93.25.72,0,1.9-.28,3.99-1.14,1.21-.48,2.1-.79,2.65-.92.57-.12,1.79-.49,3.71-1.14,2.78-.86,3.36-1.07,3.48-1.12,2.13-.68,3.11-.85,3.51-.87.25,0,.53-.04.92-.16.07-.03.3-.11.95-.28.52-.07,1.03-.17,1.63-.3.09-.03.28-.08.55-.14.21-.05.36-.08.44-.09l1.73-.45c.72-.18,1.27-.32,1.62-.42.53-.1,1.94-.37,2.04-1.43.04-.28-.04-.56-.21-.78-.33-.4-.89-.48-1.29-.5Z"/>
      <path class="cls-1" d="M127.24,45.58c-2.01.38-3.81.87-5.34,1.45h-.09s-.11.12-.11.12c-.03.02-.07.04-.07.04-.13.05-.25.09-.34.12,0-.3.02-.77.08-1.5v-.48c.25-3.32.38-5.28.4-6,.02-.95-.05-1.41-.28-1.72l-.05-.06c-.61-.67-1.41-.77-2.17-.26-.61.44-.93,1.46-1.08,3.41-.12,1.63-.21,4.96-.24,9.91,0,3.82,0,5.99.03,6.65.03.92.2,1.44.57,1.74.31.25.71.38,1.17.38.49,0,.89-.15,1.17-.43.26-.26.38-.59.41-2.66.02-1.33,0-2.56-.08-3.66-.13-1.3-.07-1.64-.09-1.64.01,0,.1-.07.38-.14.45-.15.81-.28,1.11-.42.27-.13,1.22-.5,4.25-1.52.64-.23,1.32-.42,1.98-.55.29-.04.57-.11.77-.17.85-.21,1.85-.56,2.06-1.35.07-.25.1-.75-.43-1.24-.43-.42-1.19-.55-4.01-.02Z"/>
      <path class="cls-1" d="M110.93,53.34c.07-.35-.03-.7-.31-1.01-.2-.19-.55-.41-1.15-.32-.18.03-.59.11-2.14.55-.02,0-.04.01-.06.02,0-.18.02-.43.04-.76.03-.98.1-1.71.2-2.2.28-1.7.62-3.54,1.01-5.47.25-1.22.27-2,.07-2.52-.18-.46-.67-1-1.98-1h0c-.49.04-1.3.24-2.49.6-.18.04-.5.14-2.06.92-1.54.77-1.8.94-1.98,1.08-.02.01-.12.09-.53.34.02-.13.04-.29.07-.46.19-1.08.15-1.69-.12-2.09-.22-.33-.76-.79-1.92-.2-1.17.58-1.7,2.57-1.7,6.44,0,2.29.14,4.01.42,5.26.28,1.26.82,2.61,1.61,4.03.82,1.43,1.87,1.74,2.63,1.74.02,0,.04,0,.06,0,.93-.02,2.43-.52,4.57-1.54,1.17-.53,2.09-.94,2.75-1.21.38-.15.72-.3,1.01-.45,1.29-.61,1.89-1.13,2.01-1.75ZM99.32,47.74c.46-.02.9-.29,1.38-.82.48-.51,1.29-1.1,2.41-1.73,1.12-.63,1.68-.83,1.94-.89-.03.28-.12.86-.4,2.05-.25,1.09-.44,2.2-.55,3.3-.31,3.02-.5,3.85-.57,4.07-.16.14-.56.43-1.6.87-1.13.48-1.65.57-1.87.58-.03-.15-.06-.41-.08-.87-.07-.73-.2-1.54-.4-2.43-.19-.68-.29-1.6-.29-2.76-.03-.8,0-1.19.02-1.36Z"/>
      <path class="cls-1" d="M128.63,67.82c-.53-.37-.96-.26-1.18-.14-.12.02-.49.08-1.6.14-1.47.11-2.97.29-4.47.55-1.07.21-2.28.5-3.68.86l-.11.04c-.1.04-.39.11-.85.23-.14.04-.56.14-1.25.33-.24.07-.57.16-1.03.27-.56.18-.96.3-1.21.37-.22.07-.49.12-.79.17l-.53.08c0-.06-.01-.12-.02-.19-.03-.23-.05-.43-.05-.59,0-.18.02-.49.05-.91.04-.35.06-.63.06-.78.14-2.21.24-2.86.3-3.06.39-1.48-.47-2.03-.86-2.19h0c-.46-.19-1.35-.35-2.2.71-.31.36-.5.79-.55,1.26-.04.34-.09,1.32-.16,2.99-.11,2.37-.08,3.9.1,4.69.27,1.22,1.04,1.72,1.65,1.94.24.08.52.12.84.12,1.12,0,2.72-.48,4.92-1.48,1.09-.48,2.84-1.03,5.18-1.64,2.33-.61,4.22-.99,5.59-1.13,1.62-.15,2.45-.69,2.45-1.6,0-.27-.1-.67-.59-1.01Z"/>
      <path class="cls-1" d="M151.12,41.11c.08-.21.11-.4.11-.58v-.03c-.02-.46-.21-.84-.56-1.1-.64-.49-1.71-.53-3.42-.14-.47.09-.83.2-1.06.31-.59.24-.87.6-.83,1.06.06.58.59.81,1.05.93-.04.14-.11.34-.25.62-.31.65-.52,1.27-.65,1.86-.07.46-.25,1.41-.53,2.85-.74,3.63-.4,6.01,1.08,7.32.45.34.74.47,1.04.47.2,0,.45-.06,1.03-.32.62-.25,1.09-.52,1.44-.83.34-.3.7-.76,1.09-1.38,1.05-1.57,1.74-3.18,2.06-4.78s.21-3.1-.37-4.26c-.57-1.08-.95-1.67-1.26-2ZM149.68,46.35c-.02.3-.14.85-.59,1.78-.38.78-.8,1.45-1.23,2.01,0-.21.03-.47.06-.8.14-1.33.45-2.99.95-4.96.05-.22.11-.38.16-.51.14.2.27.46.38.78.21.6.31,1.17.28,1.7Z"/>
      <path class="cls-1" d="M168.86,69.3c-.22-.03-.54,0-1.37.19-.84.16-1.37.25-1.72.3.04-.41.09-1.11.15-2.38.05-2.11.19-2.55.21-2.62.3-.75.09-1.3-.14-1.62l-.13-.13c0-.1.01-.41.1-1.4.15-1.54.15-2.75,0-3.72v-.02c-.15-.78-.41-1.7-1.18-1.94-.33-.1-.84-.1-1.43.48-.25.25-.42.59-.5,1-.04.2-.1.62-.15,1.96-.07,1.78-.16,2.94-.25,3.44-.05.24-.1.34-.1.35-.53.13-1.6.54-4.61,2.44,0-.34,0-.96.05-2.08.09-1.88.16-2.53.19-2.71.33-1.3.29-1.74.2-2.03-.1-.33-.43-.87-1.52-.87-.78,0-1.24.37-1.49.68-.3.37-.51.94-.68,1.77-.27,1.18-.34,3.14-.23,5.99.15,3.84.44,4.74.73,5.14.54.75,1.08.81,1.43.73.85-.19,1.17-1.31,1.36-2.39.1-.66.17-.94.2-1.05.04-.01.1-.03.2-.06.47-.16,1.09-.43,1.85-.83,1.18-.56,1.88-.85,2.28-1.01.02.33.05.84.07,1.63.03,1.23.02,1.81,0,2.07-.19.11-.6.32-1.45.69-.79.31-1.79.67-2.93,1.05-.87.26-1.15.38-1.3.46-.4.22-.63.63-.63,1.11,0,.7.4,1.25,1.09,1.53.28.11.58.17.89.17.33,0,.68-.06,1.05-.18,2.33-.84,4.02-1.51,5.13-2.05.61-.27,1.43-.57,2.44-.88,1.16-.37,1.9-.65,2.28-.85.86-.45.9-1.05.84-1.38-.11-.65-.56-.92-.95-.97Z"/>
      <path class="cls-1" d="M165.07,53.62h.12c1.14-.2,1.47-1.7,1.57-2.19.12-.53.3-1.91.47-7.68.2-6.73.01-6.88-.35-7.17-.75-.62-2.07-.51-2.49.14-.33.39-.5.82-.5,1.29,0,.57-.04,1.91-.11,3.99-.27,10.03.02,10.57.19,10.88.23.47.63.73,1.1.73Z"/>
      <path class="cls-1" d="M178.05,48.63c.43-1.1-.13-1.7-.4-1.91-.39-.3-1.08-.55-2.16-.01-.6.33-.99.99-1.17,1.94-.04.18-.16.55-.47,1.21-.53,1.03-.92,2.33-1.15,3.88-.21,1.54-.55,3-1.04,4.35-.51,1.55-.57,3.13-.18,4.69.56,2.24,1.66,2.71,2.49,2.71.68,0,1.43-.33,2.3-1.01.78-.61,1.51-1.35,2.2-2.24.5-.7.84-1.27,1.03-1.74.18-.47.36-1.29.55-2.57.76-4.28.19-7.3-1.68-8.97-.16-.14-.26-.24-.34-.31ZM177.11,54.78c.05,1.91-.22,3.43-.81,4.55-.31.64-.76,1.21-1.35,1.69-.11.09-.21.17-.29.22,0-.37.04-1.01.2-2.12.26-1.78.73-4.02,1.4-6.65.1-.35.19-.53.25-.61.15.15.54.74.6,2.93Z"/>
      <path class="cls-1" d="M199,43.75c-.27-.13-.68-.34-1.05-.21-.09.02-.21.06-.37.11l-.16.08c-.46.29-.77.77-.9,1.42-.06.32-.15,1-.15,3.17,0,1.89-.06,2.6-.11,2.88-.49-.07-1.07,0-1.78.2-.6.2-1.2.35-1.72.45-.67.07-1.24.17-1.63.27-.48.07-.97.17-1.46.27-1.81.33-3.55.77-5.19,1.31-1.65.57-2.14.9-2.38,1.12-.46.43-.67,1.18.05,1.97.36.46.76.74,1.18.83.4.09.89.01,1.48-.21,1.29-.46,2.75-.91,4.33-1.35,2.14-.59,2.64-.64,2.74-.64.21,0,.54-.05,2.25-.66.82-.29,1.45-.53,1.92-.73.03.68.05,1.87.05,3.94-.04,7.5.61,9.18,1.25,9.82.32.32.66.39.89.39.43,0,1.18-.22,1.33-1.69.07-.71.11-2.7.11-6.06,0-4.02.05-7.08.16-9.09.43-6.5-.17-7.32-.84-7.61Z"/>
      <path class="cls-1" d="M217.96,58.31c.43-.06.77-.1,1.01-.1.7,0,1.26-.33,1.59-.92.37-.67.25-1.35-.26-1.8-.26-.26-.66-.38-1.44-.43h0c-.59-.04-1.16-.02-1.72.06-1.13.18-2.48.51-4,.98-.81.25-1.86.55-3.13.9-1.61.44-2.68.76-3.32,1-.39.18-1.11.47-2.15.89-1.85.71-2.67,1.37-2.75,2.19-.04.37.07.91.77,1.36.44.32,1.04.37,1.76.17.54-.15,1.62-.6,3.31-1.37.68-.31,1.54-.62,2.55-.93.49-.15.85-.25,1.12-.31-.04.23-.1.55-.21.97-.69,2.15-1.14,4.4-1.34,6.71-.23,2.6-.01,4.05.73,4.74.28.22.56.35.85.37.08.02.16.02.24.02.25,0,.49-.08.7-.24.5-.39.72-1.15.72-2.56,0-2.48.56-5.59,1.68-9.24.17-.54.25-.98.25-1.34,0-.17.03-.3.07-.33.08-.05.42-.22,1.64-.49.79-.18,1.26-.29,1.33-.31Z"/>
      <path class="cls-1" d="M234.04,44.76v-.02c-.06-.68-.21-1.63-.95-2.01-.31-.16-.83-.27-1.54.15-.64.41-.97,1.42-1.15,3.51-.14,1.63-.22,2.07-.24,2.17-.3,1.11-.53,2.66-.71,4.73-.04.19-.06.42-.06.63-.24,2.43-.37,2.92-.41,3-.01.03-.11.14-.42.23-.12.01-.23.05-.33.1-.59.16-1.47.43-2.66.84l-1.52.51c-.93.31-1.57.54-1.89.67-1.8.58-3.23,1.11-4.24,1.57-1.81.78-2.69,1.5-2.86,2.33-.1.47.05.94.43,1.34.34.34.76.49,1.2.46.24-.02.62-.1,1.64-.56,3.46-1.41,6.11-2.41,7.93-2.98,1.01-.36,1.7-.61,2.1-.78.18-.08.32-.14.42-.18.06.34.14,1.01.22,2.32.44,8.47.97,8.88,1.87,8.88,1.22,0,1.37-1.66,1.41-2.21.09-1.05.14-3.18.14-6.5,0-3.04.04-5.2.13-6.41.08-1.2.31-2.81.66-4.78.62-3.33.89-5.63.81-7.02Z"/>
      <path class="cls-1" d="M207.11,45.07c-.29.55-.78,1.32-1.48,2.31-2.13,3.22-3.36,5.12-3.74,5.82-.74,1.34-.27,2.06.02,2.31.23.25.53.38.85.38.03,0,.07,0,.1,0,.69-.06,1.38-.69,2.3-2.12.39-.57.89-1.28,1.48-2.12.5-.68.94-1.32,1.32-1.93.52-.87.84-1.12.96-1.2.18.16.5.32,1.77.68.91.26,1.78.46,2.58.6,1.31.24,2.45.59,3.36,1.04.85.46,1.48.58,1.98.39.33-.12.59-.38.73-.74.25-.66.21-1.64-1.35-2.59-.97-.59-2.55-1.19-4.81-1.82-1.09-.3-1.64-.51-1.91-.62.09-.18.27-.48.61-.94,1.45-2.03,2-3.45,1.75-4.48-.13-.51-.45-.92-.94-1.16-.49-.26-1.21-.3-2.34-.13-1.68.27-3.63,1.12-5.95,2.62-.75.49-1.03.64-1.13.69-.49.08-.83.5-.95.65-.28.36-.44.7-.48.97-.13.53-.02,1.03.33,1.41.32.35.73.54,1.2.54.27,0,.69-.07,2.32-.91,1.11-.57,1.94-1.05,2.57-1.49.19-.15.37-.28.55-.39-.08.09-.16.18-.26.28-.62.62-1.11,1.27-1.45,1.92Z"/>
    </g>
    <g>
      <path class="cls-1" d="M31.41,91.39c.15.11.3.16.44.16.11,0,.23-.07.42-.26.07-.07.11-.1.11-.11.02,0,.06,0,.15.03.3.08.47.1.59.08.08-.02.21-.06.51-.29.19-.16.45-.3.77-.44.43-.17.71-.27.85-.33.23-.09.33-.1.36-.1.03,0,.05,0,.1.1.15.24.33.37.52.38.13,0,.36-.04.49-.35.06-.09.16-.23.16-3.62l.03-3.41-.29-.18c-.21-.13-.29-.16-.36-.16-.1,0-.19.06-.28.13-.17.1-.28.29-.32.57-.04.22-.06.67-.08,1.37-.04,1.02-.08,1.31-.11,1.39,0,.04-.03.11-.19.14-.35.04-.65.1-.89.2-.23.1-.74.36-1.5.77-.21.11-.35.17-.44.22-.01-.23-.02-.69-.02-1.66,0-1.96-.06-2.01-.13-2.09-.09-.09-.29-.22-.63-.1-.22.08-.39.24-.49.44-.05.09-.13.22-.14,3.34-.01,2.74.03,3.25.07,3.4.05.14.15.27.3.38ZM32.34,89.78c.04-.15.07-.19.07-.19,0-.01.05-.05.18-.13.19-.11.45-.28.75-.52,1.15-.92,1.74-1.13,2.07-1.13h.02c0,.06.02.18.02.46.02.53-.03.67-.04.7-.01.03-.08.12-.4.26-.31.16-.39.18-.38.18-.06,0-.12,0-.77.32-.49.25-.69.3-.76.3-.17.02-.34.06-.55.14-.17.06-.23.04-.24.04,0,0-.05-.09.02-.43Z"/>
      <path class="cls-1" d="M39.9,91.97c-.15-.05-.26-.08-.36-.06-.05,0-.14.01-.28.02-.84.08-1.87.29-3.06.61-1.03.27-1.22.32-1.22.32-.05,0-.1,0-1.55.49-.94.31-1.49.51-1.65.58-.16.07-.25.1-.25.11-.04,0-.06,0-.46.16-.04.03-.12.07-.23.12-.11.05-.19.09-.28.12-.07.04-.21.1-.54.18-.39.12-.62.34-.7.66-.04.16-.07.56.44.71.15.07.33.07.55,0,.17-.06.49-.21.98-.44.71-.33,1.41-.6,2.08-.82.45-.15.92-.3,1.41-.44.23-.05.43-.11.59-.18.34-.11.54-.17.67-.19,0,0,0,0,0,0-.14.23-.22.69-.25,1.44-.14,2.69-.17,4.19-.1,4.56.03.29.07.56.1.83.04.23.09.44.17.61.04.09.18.37.43.37h0c.16,0,.29-.11.41-.31.08-.12.16-.43.16-1.78,0-.93.02-1.6.07-1.99.08-.48.12-1.23.12-2.28-.01-1.28-.06-1.6-.12-1.71.07-.04.31-.15,1.15-.39.94-.27,1.27-.33,1.38-.33.3,0,.52-.09.64-.26.12-.17.12-.31.09-.4-.05-.14-.17-.24-.38-.31Z"/>
      <path class="cls-1" d="M41.89,88c.33-.43.59-.75.79-.96.25-.29.47-.56.64-.79l.04-.05v-.02c.23-.35.46-.54.67-.59.17-.04.72-.07,2.38,0h.19c.99.03,1.79.12,2.39.25.47.1.79.03.96-.21.11-.16.09-.3.06-.39-.06-.17-.24-.3-.54-.39-.43-.14-1.07-.27-1.96-.4-.87-.13-1.58-.19-2.1-.19-.07,0-.13,0-.17,0,.08-.1.22-.25.46-.48.27-.26,1.1-1.05.68-1.6h0c-.26-.35-.9-.42-1.98-.21-.32.05-.6.13-.83.23-.1.03-.23.07-.39.12-.18.05-.59.23-1.3.56-.24.1-.48.23-.7.36-.27.17-.36.17-.37.17-.14,0-.35.06-.52.35-.13.21-.17.43-.12.67.07.2.19.28.29.31.12.04.27.03.5-.03.19-.05.42-.15.71-.29.28-.13.62-.31,1.05-.53.6-.33,1-.54,1.23-.63.21-.08.46-.13.71-.15.05,0,.09,0,.12,0-.04.04-.09.09-.17.15-.72.62-1.17,1.06-1.37,1.35-.14.24-.41.56-.8.96-.54.55-.99,1.07-1.36,1.54-1.01,1.27-1.03,1.67-.92,1.9.05.1.17.23.43.23.19,0,.49-.15,1.31-1.23Z"/>
      <path class="cls-1" d="M48.99,93.73c-.2-.02-.38.01-.51.09-.09.04-.28.1-.68.16-.34.07-.65.16-.9.26-.23.08-.43.15-.56.19-.13.02-.33.08-.59.19-.38.14-.57.2-.67.22-.42.15-.72.27-.92.36-.17.08-.31.13-.42.17-.12.05-.24.15-.37.3-.15.17-.22.32-.22.46,0,.22.1.35.19.42.23.17.62.17,1.24,0,.25-.07.64-.25,1.17-.54.21-.11.57-.26,1.07-.44.62-.22.89-.28,1.02-.29.11-.02.19-.03.23-.03h0c0,.09,0,.3-.06.76-.15,1.25-.24,2.67-.25,4.2,0,1.01,0,1.66.03,1.92.02.32.12.53.3.63l.05.03h.05c.11,0,.2,0,.27-.01.21-.03.27-.29.32-.55.04-.25.08-.57.13-.96.04-.39.09-.95.14-1.68.05-.65.12-1.41.22-2.25.02-.18.04-.41.09-.68.04-.28.07-.51.09-.7.01-.17.03-.28.05-.37.03-.31.06-.41.05-.41,0,0,0,0,0,0l.04-.07c.04-.11.06-.3.05-.59-.01-.39-.07-.52-.15-.6-.1-.1-.25-.16-.46-.18Z"/>
      <path class="cls-1" d="M56.52,89.28c-.47-.07-.73-.06-.88.04-.04,0-.16.03-.5.08-.42.05-.92.13-1.54.25-.74.16-1.38.41-1.9.76-.15.11-.3.17-.45.19-.21.04-.38.13-.51.27-.04.04-.06.09-.09.13-.09-.23-.42-.3-.56-.32-.29-.05-.61-.04-.99.02-.02,0-.13.03-.72.12-.65.1-1.27.24-1.84.41-.11.04-.27.07-.5.09-.01,0-.02,0-.03,0,0-.07.02-.18.04-.35.03-.2.08-.53.15-.99.03-.35.1-.69.2-1.02.08-.36.15-.72.19-1.1.06-.54.02-.7-.05-.77-.11-.14-.28-.2-.48-.16-.17.04-.31.12-.43.26-.33.4-.58,1.16-.79,2.34-.05.26-.1.68-.15,1.3-.07.77-.13.91-.14.93,0,.01-.1.1-.65.27-.62.22-1.17.44-1.62.66-.86.42-1.27.75-1.32,1.08-.02.11,0,.27.13.4.09.12.24.18.45.19.02,0,.05,0,.08,0,.13,0,.28-.02.37-.14.08,0,.22-.05.63-.24.34-.16.79-.35,1.36-.57,2.54-.94,4.51-1.53,5.86-1.74.44-.05.59-.11.66-.15.03-.02.04-.05.07-.07,0,.16.05.4.25.51.06.03.13.05.19.05.21,0,.41-.14.49-.19.12-.08.27-.14.42-.17.23-.04.69-.19,1.42-.46.81-.3,1.36-.48,1.63-.56.27-.07.61-.12,1.01-.16.57-.04.93-.09,1.12-.18.26-.12.36-.34.28-.63-.06-.19-.3-.3-.83-.38Z"/>
      <path class="cls-1" d="M51.32,89.28c.07.03.13.04.2.04.16,0,.32-.07.5-.21.12-.09.46-.28,1.44-.63.8-.29,1.53-.51,2.17-.66.43-.12.69-.2.8-.24.19-.07.29-.23.29-.42,0-.16-.07-.43-.55-.52-.29-.05-.64-.04-1.07.05-.17.03-.37.08-.6.12-2.41.48-3.54,1.06-3.54,1.82,0,.42.18.58.34.65Z"/>
      <path class="cls-1" d="M55.29,92.81c-.21-.12-.34-.25-.38-.35-.09-.34-.2-.5-.36-.55h0c-.22-.06-.42.12-.55.26-.34.34-.7,1.05-1.08,2.18-.39,1.12-.56,1.92-.52,2.43.04.77.25,1.21.62,1.37.09.04.18.05.28.05.4,0,.9-.28,1.53-.85.24-.2.42-.42.54-.65.12-.22.24-.58.38-1.1.23-.85.31-1.45.25-1.82-.06-.4-.29-.73-.7-.96ZM54.71,94.65c.02.44,0,.77-.07.97-.09.3-.3.61-.62.93-.29.29-.46.36-.54.37,0-.07,0-.22.06-.54.09-.46.21-.89.37-1.26.02-.04.06-.14.23-.62h0c.2-.62.35-.66.35-.66h0s.04.01.11.09c0,.01.08.12.1.72Z"/>
      <path class="cls-1" d="M74.83,93.04c-.34-.57-.36-.71-.36-.73,0,0,0-.08.12-.33.12-.21.25-.5.39-.85.08-.21.23-.57.44-1.06.36-.75.43-1.25.22-1.56-.21-.32-.66-.4-1.4-.25-1.24.27-2.29.69-3.13,1.26-.38.28-.5.29-.51.29-.15,0-.34.06-.48.3,0-.1-.04-.18-.12-.24-.14-.11-.36-.12-.75-.04-.28.07-.55.12-.82.17-.48.1-1.03.23-1.64.38-.44.12-.75.19-.9.22-.13.02-.49.1-1.07.25-.75.19-1.29.36-1.66.51-.12.05-.29.11-.51.19-.25.08-.46.16-.6.23-.87.4-1.23.53-1.36.57-.01-.07-.02-.19-.03-.4-.02-.37,0-.76.05-1.17h0c.29-2.58.11-2.68-.06-2.78-.1-.05-.24-.11-.38-.06-.06.02-.14.08-.31.26-.14.15-.23.31-.26.46-.02.09-.04.3-.02,1.12.02.53,0,.9-.04,1.1-.04.14-.08.58-.02,2.73.06,2.4.14,2.7.17,2.79.05.21.09.28.11.32.04.06.12.16.27.16.03,0,.07,0,.1,0,.11,0,.21-.04.28-.11.08-.08.13-.21.17-.39.03-.15.05-.34.06-.58.02-.24.03-.54.03-.92,0-.85.03-1.09.04-1.15,0-.02.02-.07.17-.1.18-.04.36-.12.54-.25.4-.27,1.19-.61,2.35-1,.41-.14,1.15-.37,2.22-.69,1.08-.32,1.75-.52,1.99-.58,1.21-.28,1.69-.52,1.87-.73-.1.4.02.62.17.75.24.16.71.18,2.32-.88,1.1-.73,1.52-.77,1.66-.74,0,.05-.02.16-.1.37-.12.32-.28.62-.49.89-.05.07-.2.34-.91,1.76-.53,1.06-.89,1.8-1.06,2.2-.39.92-.61,1.44-.66,1.61-.07.22-.03.43.11.62.1.12.2.19.32.21.01,0,.03,0,.04,0,.11,0,.22-.06.33-.18.08-.09.18-.23.28-.41.09-.17.22-.4.37-.71.21-.41.38-.72.49-.9.12-.18.25-.43.39-.76.17-.4.28-.55.33-.6.06.05.22.21.51.69.2.36.51.78.92,1.27.56.66.76.8.87.84.19.08.34.12.48.09.13-.03.22-.12.27-.24.08-.22.02-.63-.98-1.93-.33-.43-.62-.86-.87-1.29Z"/>
      <path class="cls-1" d="M82.67,90.91c.02-2-.04-3.27-.18-3.87-.03-.16-.15-.27-.36-.35-.19-.06-.31-.08-.39-.07h0c-.1.02-.19.08-.31.2-.23.25-.29.65-.2,1.22.05.3.08,1.55.1,3.72.02,2.53.11,4.35.28,5.41.09.56.15.72.18.79.07.15.2.24.36.24.02,0,.05,0,.07,0,.17-.01.47-.11.53-.57.04-.26.03-.99-.02-2.23-.03-1.42-.05-2.93-.05-4.47Z"/>
      <path class="cls-1" d="M85.86,87.15c-.19.13-.48.53-.94,2.09-.37,1.25-.51,2.06-.41,2.49.07.22.21.39.42.49.11.05.23.08.35.08.1,0,.21-.02.32-.06.21-.08.3-.09.33-.09.06,0,.16,0,1.1-.36.58-.23,1.05-.37,1.39-.42.34-.07.6-.15.81-.24.51-.22,1.2-.4,2.05-.51.46-.07.62-.14.69-.19.18-.1.25-.29.19-.52-.11-.32-.58-.36-.98-.36-.49,0-1.05.09-1.65.25-.08.02-.26.06-.53.13-.31.07-.63.15-.94.26-.14.05-.33.08-.57.12-.19.03-.52.11-1.01.23-.4.1-.53.07-.54.09,0-.05,0-.28.28-1.18.3-.93.47-1.48.52-1.68.06-.25.02-.46-.1-.61-.1-.12-.24-.16-.41-.13.22-.09.46-.19.72-.31.65-.3.94-.41,1.07-.45.14-.04.48-.13,1.31-.31.18-.03.44-.06.78-.1.47-.05.62-.09.7-.13.16-.08.25-.22.25-.42,0-.16-.06-.3-.17-.4-.19-.17-.51-.21-1-.15-.25.03-.51.07-.8.1-.78.09-1.47.21-2.06.38-.5.15-.83.25-1.04.3-.99.22-1.58.39-1.81.51-.27.14-.42.38-.42.69,0,.33.16.5.29.59.33.21.92.16,1.83-.16Z"/>
      <path class="cls-1" d="M94.78,96.16c-1.16.17-2.26.4-3.28.68-.22.06-.6.15-1.12.25-.49.12-.85.21-1.09.28-.26.09-.49.14-.68.14h-.12l.02-.45c.02-.93.22-2.04.62-3.29.52-1.59.42-1.88.28-2.02-.22-.24-.51-.26-.79-.05-.21.15-.54.55-1,2.35-.34,1.3-.5,2.39-.48,3.25.01.3.02.5.02.61-.06.03-.2.09-.51.19-.2.04-.34.09-.41.15-.02.01-.16.08-1.09.36-.38.14-.65.26-.82.37-.27.18-.31.39-.29.53.02.29.27.44.73.44.06,0,.12,0,.19,0,.47-.03,1.07-.19,1.78-.46.75-.29,1.67-.57,2.76-.82l.7-.2c1.24-.38,2.34-.66,3.28-.82.68-.13,1.12-.23,1.28-.28l.85-.2c.5-.11.83-.21,1.01-.32.25-.15.34-.39.21-.66-.11-.15-.34-.25-2.04,0Z"/>
      <path class="cls-1" d="M104.99,89.21c1.94-.92,2.46-.97,2.58-.95.02.17,0,.77-.19,2.75-.07.67-.1,1.33-.1,1.96,0,1,.05,1.1.19,1.15.05.02.12.04.2.04.17,0,.38-.1.55-.48.15-.33.26-.78.33-1.38.05-.56.11-1.01.17-1.35.1-.5.19-1.18.28-2.08.05-.64.09-1.08.12-1.3.07-.36-.07-.63-.38-.76-.27-.11-.62-.09-1.06.06-.27.11-.36.11-.41.11-.11.02-.3.07-.55.16-.59.18-.63.2-.62.2-.39.12-.81.27-1.25.46-.22.09-.44.17-.65.22-.36.09-.63.26-.81.5-.25.33-.19.61-.09.79.26.49,1.08.18,1.69-.09Z"/>
      <path class="cls-1" d="M121.65,90.27c.02-.08.02-.23-.15-.37-.11-.09-.25-.21-2.49.23-.22.04-.4.08-.55.12-.21.03-.41.08-.61.13-1.05.22-1.84.42-2.31.6-.07.02-.18.05-.34.1-.17.05-.27.09-.27.1-.18.05-.45.17-.84.37-.2.11-.32.17-.4.2-.02-.2-.04-.71.03-2.03.07-1.46.18-2.44.31-2.94.02-.12,0-.3-.19-.46-.12-.14-.21-.21-.3-.23h0c-.1-.03-.21.02-.33.1-.42.19-.86,1.19-.97,7.21-.02,1.64,0,2.73.05,3.25.06.57.21.93.48,1.08.07.03.16.07.26.07.05,0,.1,0,.15-.03.13-.07.27-.16.33-2.37.02-1.43.05-1.89.07-2.02.02-.13.08-.2.2-.25.2-.08.44-.19.72-.33.52-.29,1.2-.54,2.03-.76.52-.15.99-.29,1.4-.43.62-.18,1.3-.37,2.02-.55.41-.1.73-.2.94-.28.48-.16.71-.31.75-.52Z"/>
      <path class="cls-1" d="M105.88,96.57c-.16.06-.25.09-.31.1-.03-.15-.06-.57-.04-1.74.02-.97.02-1.52,0-1.7-.02-.22-.09-.38-.2-.46-.3-.25-.61-.24-.85.02-.08.1-.22.25-.3,3.15-.02.97-.06,1.19-.08,1.25-.03.08-.11.16-.24.23-.22.12-.38.27-.47.46-.13.26-.08.46-.02.57.07.12.21.27.54.27.2,0,.34-.03.44-.1.08-.03.2-.07.36-.11.2-.05.45-.15.75-.28l1.2-.5c.15-.07.47-.21.94-.42.24-.1.47-.18.69-.25.6-.19,1.09-.37,1.48-.56.51-.24.69-.39.69-.58,0-.08-.01-.15-.06-.25-.19-.25-.71-.41-4.51.88Z"/>
      <path class="cls-1" d="M122.33,89.28c.07.03.13.04.2.04.16,0,.32-.07.5-.21.12-.09.46-.28,1.44-.63.8-.29,1.53-.51,2.17-.66.43-.12.69-.2.8-.24.19-.07.29-.23.29-.42,0-.16-.07-.43-.55-.52-.29-.05-.64-.04-1.07.05-.17.03-.37.08-.6.12-2.41.48-3.54,1.06-3.54,1.82,0,.42.18.58.34.65Z"/>
      <path class="cls-1" d="M126.3,92.81c-.21-.12-.34-.25-.38-.35-.09-.34-.2-.5-.36-.55h0c-.22-.06-.42.12-.55.26-.34.34-.7,1.05-1.08,2.18-.39,1.12-.56,1.92-.52,2.43.04.77.25,1.21.62,1.37.09.04.18.05.28.05.4,0,.9-.28,1.53-.85.24-.2.42-.42.54-.65.12-.22.24-.58.38-1.1.23-.85.31-1.45.25-1.82-.06-.4-.29-.73-.7-.96ZM125.72,94.65c.02.44,0,.77-.07.97-.09.3-.3.61-.62.93-.29.29-.46.36-.54.37,0-.07,0-.22.06-.54.09-.46.21-.89.37-1.26.02-.04.06-.14.23-.62h0c.2-.62.35-.66.35-.66h0s.04.01.11.09c0,.01.08.12.1.72Z"/>
      <path class="cls-1" d="M127.52,89.28c-.47-.07-.73-.06-.88.04-.04,0-.16.03-.5.08-.42.05-.92.13-1.54.25-.74.16-1.38.41-1.9.76-.15.11-.3.17-.45.19-.21.04-.38.13-.51.27-.13.15-.2.31-.2.47,0,.12,0,.48.26.61.06.03.13.05.19.05.21,0,.41-.14.49-.19.12-.08.27-.14.42-.17.23-.04.69-.19,1.42-.46.81-.3,1.36-.48,1.63-.56.27-.07.61-.12,1.01-.16.57-.04.93-.09,1.12-.18.26-.12.36-.34.28-.63-.06-.19-.3-.3-.83-.38Z"/>
      <path class="cls-1" d="M153.68,90.91c.02-2-.04-3.27-.18-3.87-.03-.16-.15-.27-.36-.35-.19-.06-.31-.08-.39-.07h0c-.1.02-.19.08-.31.2-.23.25-.29.65-.2,1.22.05.3.08,1.55.1,3.72.02,2.53.11,4.35.28,5.41.09.56.15.72.18.79.07.15.2.24.36.24.02,0,.05,0,.07,0,.17-.01.47-.11.53-.57.04-.26.03-.99-.02-2.23-.03-1.42-.05-2.93-.05-4.47Z"/>
      <path class="cls-1" d="M145.84,93.04c-.34-.57-.36-.71-.36-.73,0,0,0-.08.12-.33.12-.21.25-.5.39-.85.08-.21.23-.57.44-1.06.36-.75.43-1.25.22-1.56-.21-.32-.66-.4-1.4-.25-1.24.27-2.29.69-3.13,1.26-.38.28-.5.29-.51.29-.15,0-.34.06-.48.3,0-.1-.04-.18-.12-.24-.13-.11-.36-.12-.75-.04-.28.07-.55.12-.82.17-.48.1-1.03.23-1.64.38-.44.12-.75.19-.9.22-.13.02-.49.1-1.07.25-.75.19-1.29.36-1.66.51-.12.05-.29.11-.51.19-.25.08-.46.16-.6.23-.87.4-1.23.53-1.36.57-.01-.07-.02-.19-.03-.4-.02-.37,0-.76.05-1.17h0c.29-2.58.11-2.68-.06-2.78-.1-.05-.24-.11-.38-.06-.06.02-.14.08-.31.26-.14.15-.23.31-.26.46-.02.09-.04.3-.02,1.12.02.53,0,.9-.04,1.1-.04.14-.08.58-.02,2.73.06,2.4.14,2.7.17,2.79.05.21.09.28.11.32.04.06.12.16.27.16.03,0,.07,0,.1,0,.11,0,.21-.04.28-.11.08-.08.13-.21.17-.39.03-.15.05-.34.06-.58.02-.24.03-.54.03-.92,0-.85.03-1.09.04-1.15,0-.02.02-.07.17-.1.18-.04.36-.12.54-.25.4-.27,1.19-.61,2.35-1,.41-.14,1.15-.37,2.22-.69,1.08-.32,1.75-.52,1.99-.58,1.21-.28,1.69-.52,1.87-.73-.1.4.02.62.17.75.24.16.71.18,2.32-.88,1.1-.73,1.52-.77,1.66-.74,0,.05-.02.16-.1.37-.12.32-.28.62-.49.89-.05.07-.2.34-.91,1.76-.53,1.06-.89,1.8-1.06,2.2-.39.92-.61,1.44-.66,1.61-.07.22-.03.43.11.62.1.12.2.19.32.21.01,0,.03,0,.04,0,.11,0,.22-.06.33-.18.08-.09.18-.23.28-.41.09-.17.22-.4.37-.71.21-.41.38-.72.49-.9.12-.18.25-.43.39-.76.17-.4.28-.55.33-.6.06.05.22.21.51.69.2.36.51.78.92,1.27.56.66.76.8.87.84.19.08.34.12.48.09.13-.03.22-.12.27-.24.08-.22.02-.63-.98-1.93-.33-.43-.62-.86-.87-1.29Z"/>
      <path class="cls-1" d="M165.78,96.16c-1.16.17-2.26.4-3.28.68-.22.06-.6.15-1.12.25-.49.12-.85.21-1.09.28-.26.09-.49.14-.68.14h-.12l.02-.45c.02-.93.22-2.04.62-3.29.52-1.59.42-1.88.28-2.02-.22-.24-.51-.26-.79-.05-.21.15-.54.55-1,2.35-.34,1.3-.5,2.39-.48,3.25.01.3.02.5.02.61-.06.03-.2.09-.51.19-.2.04-.34.09-.41.15-.02.01-.16.08-1.09.36-.38.14-.65.26-.82.37-.27.18-.31.39-.29.53.02.29.27.44.73.44.06,0,.12,0,.19,0,.47-.03,1.07-.19,1.78-.46.75-.29,1.67-.57,2.76-.82l.7-.2c1.24-.38,2.34-.66,3.28-.82.68-.13,1.12-.23,1.28-.28l.85-.2c.5-.11.83-.21,1.01-.32.25-.15.34-.39.21-.66-.11-.15-.34-.25-2.04,0Z"/>
      <path class="cls-1" d="M156.87,87.15c-.19.13-.48.53-.94,2.09-.37,1.25-.51,2.06-.41,2.49.07.22.21.39.42.49.11.05.23.08.35.08.1,0,.21-.02.32-.06.21-.08.3-.09.33-.09.06,0,.16,0,1.1-.36.58-.23,1.05-.37,1.39-.42.34-.07.6-.15.81-.24.51-.22,1.2-.4,2.05-.51.46-.07.62-.14.69-.19.18-.1.25-.29.19-.52-.11-.32-.58-.36-.98-.36-.49,0-1.05.09-1.65.25-.08.02-.26.06-.53.13-.31.07-.63.15-.94.26-.14.05-.33.08-.57.12-.19.03-.52.11-1.01.23-.4.1-.53.07-.54.09,0-.05,0-.28.28-1.18.3-.93.47-1.48.52-1.68.06-.25.02-.46-.1-.61-.1-.12-.24-.16-.41-.13.22-.09.46-.19.72-.31.65-.3.94-.41,1.07-.45.14-.04.48-.13,1.31-.31.18-.03.44-.06.78-.1.47-.05.62-.09.7-.13.16-.08.25-.22.25-.42,0-.16-.06-.3-.17-.4-.19-.17-.51-.21-1-.15-.25.03-.51.07-.8.1-.78.09-1.47.21-2.06.38-.5.15-.83.25-1.04.3-.99.22-1.58.39-1.81.51-.27.14-.42.38-.42.69,0,.33.16.5.29.59.33.21.92.16,1.83-.16Z"/>
      <path class="cls-1" d="M182.04,95.16c.07.02.15.03.26.03.15,0,.33-.02.56-.07.38-.08.77-.16,1.16-.22l1.21-.18c.38-.07.76-.12,1.15-.17.2-.03.38-.07.54-.1.5-.13.76-.29.82-.52.03-.1.02-.26-.15-.44h0c-.15-.15-.51-.26-2.05-.06-.82.13-1.76.31-2.81.53-.52.1-.69.17-.77.21-.11.07-.25.21-.25.49,0,.34.2.46.33.5Z"/>
      <path class="cls-1" d="M183.75,91.84c.16.26.33.33.47.33.09,0,.17-.03.21-.06.32-.16.44-.52.36-1.07-.03-.17-.08-.59-.11-1.69-.03-1.16,0-1.47,0-1.57,0-.06.03-.11.08-.14.04-.03.22-.14.91-.46.74-.36,1.68-.71,2.79-1.04.82-.24,1.17-.48,1.17-.79,0-.1-.04-.2-.12-.26-.17-.14-.52-.16-1.14-.03-1.38.25-2.49.59-3.3.99-.17.08-.27.12-.33.14,0-.12-.02-.38,0-.93.01-.69.05-1.41.1-2.13.03-.29.05-.53.05-.72,0-.21-.03-.38-.08-.5-.09-.2-.22-.27-.32-.29-.13-.03-.27,0-.41.08-.23.09-.38.32-.45.66-.05.29-.11,1.03-.18,2.26-.1,1.6-.13,3.15-.08,4.6.07,1.98.23,2.45.36,2.62Z"/>
      <path class="cls-1" d="M188.14,95.07c-.78,0-1.34.01-1.72.06-.58.09-1.25.22-1.99.4-.3.07-.76.18-1.38.33-.47.1-.78.2-.95.3-.2.12-.31.31-.31.55,0,.33.17.55.49.63.09.02.19.04.3.04.2,0,.44-.04.71-.12l1.04-.3c.44-.11.8-.21,1.11-.33.4-.12.83-.21,1.27-.29.6-.08.96-.13,1.1-.15.48-.06.95-.01,1.31-.13.28-.09.44-.21.49-.39.03-.1.03-.25-.13-.44-.07-.08-.13-.13-1.35-.15Z"/>
      <path class="cls-1" d="M176.82,83.81h0c.09-.22.1-.4.01-.54-.08-.14-.24-.22-.48-.25-.19-.02-.41,0-.66.09-.43.15-.55.25-.6.33-.08.1-.14.29.05.56.03.05.04.08.04.11,0,.02-.02.13-.16.55-.13.45-.29,1.1-.47,1.98-.18.88-.28,1.46-.32,1.8-.02.44.04.89.19,1.33.15.47.34.79.6.96.1.08.22.11.34.11.22,0,.48-.12.77-.36.4-.32.74-.77,1.01-1.33.6-1.18.87-2.27.81-3.24-.06-.97-.43-1.68-1.13-2.11ZM176.19,88.06c-.36.85-.59,1.1-.71,1.17-.02-.09-.03-.27-.03-.63,0-.56.06-1.09.16-1.59.06-.43.13-.82.2-1.14h0c.14-.88.32-.94.32-.94,0,0,0,0,0,0,.02,0,.09.03.22.18.11.1.17.21.19.36.02.08.05.3.1.65.08.41-.08,1.07-.45,1.95Z"/>
      <path class="cls-1" d="M182.32,98.16c-.38.09-.97.28-1.75.56-.13.05-.33.11-.63.2-.08.03-.2.07-.35.12-.12.04-.2.06-.23.07h-.06c-.24.09-.37.11-.43.11,0-.12,0-.44.05-1.33.06-.88.12-1.54.19-1.97.09-.65.08-.86.06-.97-.02-.13-.12-.35-.49-.39h-.02c-.22,0-.39.05-.51.17-.11.14-.27.45-.34,1.56-.03.51-.08,1.02-.12,1.51-.05.39-.08.88-.08,1.44,0,.78.05.99.09,1.08.05.15.2.38.62.38.02,0,.05,0,.07,0,.29-.02.71-.16,1.31-.42.41-.2,1.33-.56,2.76-1.09.48-.19.57-.47.57-.67,0-.18-.09-.27-.16-.32-.13-.09-.31-.1-.55-.04Z"/>
      <path class="cls-1" d="M187.42,97.34c-.13-.08-.15-.13-.15-.13,0-.27-.12-.46-.35-.55-.2-.08-.43-.07-.72.05-.21.11-.43.33-.68.66-.23.31-.43.65-.59,1.02-.89,2.32-.98,3.78-.28,4.44.2.19.42.28.66.28.17,0,.36-.05.55-.15.4-.22.78-.64,1.15-1.27.58-.99.92-1.88,1-2.64.09-.82-.11-1.39-.6-1.71ZM186.76,99.11c-.07.34-.26.83-.57,1.46-.13.25-.25.46-.37.64-.33.5-.46.52-.46.51-.08-.14-.15-.56.39-1.75.15-.37.29-.73.43-1.08h0c.24-.7.38-.8.38-.81,0,0,.06.04.12.2.11.24.14.52.07.84Z"/>
      <path class="cls-1" d="M201.24,87.77h0c-.18.01-.35.09-.5.25-.18.18-.38.6-.38,2.27,0,.49-.1.61-.13.63-.05.04-.25.14-.99.25-.9.12-1.77.34-2.6.67-.95.38-1.35.68-1.35,1.02s.19.58.53.66c.29.07.64,0,1.03-.18.6-.29,1.31-.58,2.09-.84.07-.02.16-.04.26-.08.82-.27,1-.23.99-.25.01.02.1.17.12,1.01v.28c.03.8.08,1.43.15,1.85.05.28.1.57.15.88.1.57.28,1.22.71,1.22.02,0,.04,0,.07,0,.2-.03.32-.21.35-.51.03-.22.03-.67.01-1.37-.08-2.14-.07-4.24.05-6.24.05-.94-.01-1.16-.08-1.26-.1-.18-.27-.28-.49-.26Z"/>
      <path class="cls-1" d="M195.41,89.89c.17-.39.08-.73-.25-.95-.1-.06-.25-.11-.45-.15-.21-.04-.38-.05-.48.04-.04.02-.17.06-.59.16-.44.1-.77.21-.99.3-.22.07-.43.13-.62.2-.19.05-.51.19-.98.41-.55.25-.67.28-.67.28-.2,0-.49.08-.72.46-.25.4-.16.66-.04.81.3.41.96.07,1.18-.04.34-.18.84-.39,1.49-.64.84-.32,1.09-.38,1.16-.39.01,0,.02,0,.03,0,.03,0,.03,0,.02,0,0,.04,0,.19-.16.57-.12.27-.2.48-.24.62,0,.02-.04.1-.24.56-.12.28-.17.39-.18.44l-.29.65c-.47.96-.89,1.99-1.26,3.08-.11.33-.15.59-.13.77.01.22.09.36.22.41.04.02.08.02.11.02.16,0,.32-.12.43-.23.13-.13.4-.53,1.29-2.48.33-.72.65-1.37.94-1.91.5-.92.5-.95.5-.98.02-.06.16-.4.91-2.01Z"/>
      <path class="cls-1" d="M205.92,86.9c-.04-.15-.16-.34-.51-.4-.27-.04-.48,0-.64.17-.07.09-.14.18-.14,4.08,0,2.54.03,4.23.1,5.02.05.67.11,1.2.18,1.59.1.67.24.95.47.98.02,0,.03,0,.04,0,.24,0,.38-.29.44-.42.03-.09.09-.23.13-5.49.04-5.25-.04-5.46-.07-5.54Z"/>
    </g>
    <g>
      <path class="cls-1" d="M33.88,3.12c.41.24.7.67.87,1.3.03.06.07.18.12.35.05.17.08.29.09.35.09.31.11.86.05,1.64-.06.78-.19,1.44-.38,1.99-.11.38-.17.59-.17.64s-.27.63-.8,1.75c-.52,1.08-.83,1.79-.94,2.12-.06.16-.17.35-.31.57-.17.27-.32.52-.45.75-.05.06-.1.15-.15.25s-.13.22-.21.35c-.09.13-.15.24-.2.32-.25.42-.53.96-.83,1.6-.16.36-.35.52-.57.47-.14-.03-.21-.17-.21-.42,0-.11.05-.3.14-.58.09-.28.18-.48.26-.6.08-.08.17-.22.26-.41.09-.2.18-.36.26-.48.02-.05.06-.13.13-.25.07-.12.12-.2.15-.25.06-.14.18-.36.35-.66.33-.55.56-1.01.68-1.37.17-.5.5-1.23.99-2.19.5-.99.62-1.5.35-1.53-.09,0-.23.03-.4.09-.44.16-.9.17-1.39.05-.49-.13-.92-.38-1.3-.75-.49-.49-.64-1.16-.46-2,.18-.85.64-1.63,1.38-2.33.33-.3.75-.57,1.27-.8.52-.2.98-.19,1.39.05ZM32.08,4.12c-.61.37-1.05.87-1.33,1.5-.2.44-.29.86-.26,1.26.03.4.18.73.45.98.36.35.91.47,1.64.37.73-.1,1.19-.37,1.38-.79.2-.44.25-1.08.14-1.93-.11-.85-.31-1.38-.59-1.58-.35-.24-.82-.17-1.43.2Z"/>
      <path class="cls-1" d="M40.65,3.12c.19-.03.41.04.66.21.25.17.44.39.57.64.85,1.65,1.11,3.02.78,4.1-.11.35-.17.59-.19.73-.06.24-.13.42-.19.54-.05.11-.09.31-.14.61-.02.27-.07.53-.17.8-.02.02-.05.11-.11.28-.06.17-.09.29-.11.35-.14.39-.39.95-.75,1.67-.17.39-.39.76-.64,1.11-.13.17-.3.44-.52.8-.14.27-.4.62-.78,1.06-.38.44-.72.8-1.04,1.08-.33.3-.66.45-.98.45s-.57-.15-.74-.45c-.19-.33-.32-.8-.39-1.42-.07-.61-.05-1.16.06-1.63.06-.27.1-.75.12-1.46.03-.71.06-1.16.09-1.34.03-.17.06-.38.09-.61.02-.2.07-.43.17-.68.08-.24.12-.42.12-.54s.02-.24.07-.33c.03-.08.07-.25.12-.52.05-.35.16-.78.34-1.3s.33-.84.44-.97c.44-.46.71-.66.83-.61.14.06.21.23.2.51,0,.28-.09.53-.25.77-.14.19-.21.31-.21.37s-.04.16-.12.32c-.09.14-.14.26-.14.35s-.04.23-.12.4c-.13.33-.23.8-.31,1.42-.03.3-.07.5-.12.59-.05.14-.09.39-.12.73-.05.41-.1.71-.17.9-.05.2-.09.79-.13,1.76-.04.97-.04,1.6.01,1.9.13.98.66.82,1.6-.47.39-.53.61-.84.66-.92.47-.63.75-1.05.85-1.27.03-.08.13-.25.31-.52.14-.24.3-.53.47-.9.17-.36.26-.57.26-.64,0-.05.02-.09.05-.12.05-.03.09-.17.14-.4.03-.2.1-.46.21-.78.11-.3.18-.54.21-.73.03-.21.08-.41.14-.61.06-.22.09-.64.09-1.25,0-1.16-.14-2.01-.42-2.55-.28-.53-.75-.83-1.39-.9-.28-.02-.42-.09-.42-.24,0-.16.18-.25.54-.28l.45-.02Z"/>
      <path class="cls-1" d="M51.24,6.65c.11.06.15.14.12.24-.05.13-.35.23-.92.31-.74.09-1.69.41-2.85.94-.2.11-.31.33-.31.66,0,.13-.05.38-.17.75-.22.85-.34,2.04-.35,3.56,0,1.04.03,1.57.09,1.6.03.02.09,0,.17-.05.53-.22.9-1.24,1.08-3.07.06-.66.11-1.1.14-1.32.05-.27.07-.49.07-.66,0-.31.07-.56.21-.73s.31-.21.5-.12c.08.03.13.07.14.11.02.04,0,.12-.02.25-.03.22-.06.57-.09,1.06-.03.53-.05.83-.07.87-.03.05-.07.29-.12.73-.05.52-.13,1.15-.24,1.89-.03.25-.04.39-.01.42.02.03.14.03.37,0,.22-.03.47-.06.75-.09.25-.05.48-.09.68-.14.97-.22,1.45-.2,1.42.05-.02.06-.06.13-.14.21-.13.11-.76.32-1.91.64-.87.25-1.39.41-1.58.47-.14.05-.46.15-.94.31-.5.16-1.14.42-1.91.8-.52.25-.82.28-.9.09-.09-.19-.04-.37.15-.54.2-.17.63-.43,1.31-.78.24-.11.37-.18.4-.22.03-.04,0-.11-.09-.2-.14-.13-.23-.27-.26-.45-.03-.17-.04-.57-.02-1.2.06-1.51.15-2.46.25-2.84.1-.38.17-.68.21-.88.04-.21.06-.37.06-.48s-.02-.19-.05-.22-.09-.04-.19-.02c-.14.02-.23.04-.26.07-.05.05-.09.07-.14.07-.06,0-.22.05-.47.17-.28.13-.43.19-.45.19-.03,0-.1.04-.21.12-.24.19-.44.19-.61.01s-.17-.4.02-.65c.09-.13.4-.29.92-.5.52-.2,1.08-.38,1.7-.54.36-.08.77-.2,1.23-.38.66-.22,1.22-.38,1.67-.5.75-.2,1.3-.2,1.63,0ZM57.09,5.79s.15.02.31.08l.21.07-.05,1.16c-.02.61-.05,1.27-.09,1.96-.21,2.61-.22,4.68-.05,6.23.08.71,0,1.19-.24,1.46-.16.2-.28.09-.38-.33-.02-.03-.02-.06-.02-.09-.35-1.76-.45-3.51-.31-5.26.05-.63.01-1.01-.11-1.13-.12-.13-.4-.06-.84.19-.22.13-.55.25-.99.38-.69.2-1.42.48-2.19.83-.41.19-.68.13-.83-.19-.08-.19-.07-.35.02-.5s.25-.25.47-.33c.05,0,.12-.02.21-.06.09-.04.22-.08.38-.13.16-.05.28-.09.38-.12.83-.27,1.48-.43,1.93-.5.57-.06,1.06-.2,1.49-.42.08-.03.13-.14.17-.34.03-.2.05-.59.07-1.19.01-.68.04-1.08.06-1.21s.09-.25.2-.37c.08-.11.14-.17.19-.18Z"/>
      <path class="cls-1" d="M62.51,4.7c.09.08.13.17.12.27-.02.1-.15.55-.4,1.36-.19.6-.29.95-.29,1.06,0,.11.05.27.18.47.02.06.11.24.28.53.17.29.31.53.4.72.35.6.57.97.68,1.11.09.11.2.28.31.52.09.21.19.38.28.52s.13.27.11.39c-.02.12-.11.19-.25.2-.19.02-.45-.17-.79-.57s-.69-.93-1.05-1.6c-.38-.74-.63-1.11-.75-1.11-.11,0-.23.27-.35.8-.14.61-.34,1.25-.59,1.91-.11.31-.24.37-.38.17-.08-.09-.13-.24-.17-.42-.03-.19.03-.58.19-1.17s.33-1.13.52-1.62c.42-1.04.75-1.98.99-2.83.09-.28.21-.51.35-.68.19-.2.39-.21.61-.02ZM69.3,4.06c.08.06.1.35.07.85-.13,2.61-.16,4.25-.09,4.93.09.91.13,1.5.11,1.76-.02.26-.12.39-.29.39-.22,0-.37-.19-.46-.57-.09-.38-.15-1.13-.2-2.26-.02-.03-.02-.07-.02-.12-.03-.9-.09-1.4-.18-1.52-.09-.12-.37-.09-.84.08-.03.02-.06.02-.07.02-.53.19-.91.31-1.13.35-.13.02-.38.12-.75.33-.41.2-.73.3-.97.28-.24-.01-.35-.13-.35-.35,0-.5,1.01-.93,3.04-1.3.63-.11,1.01-.23,1.13-.37.13-.13.19-.48.19-1.05,0-.75.09-1.22.26-1.39.17-.19.36-.21.57-.07ZM67.11,14.75c.13,0,.23.04.31.11.06.08.09.64.07,1.7-.02,1.02,0,1.56.07,1.6.03.02.12,0,.28-.05.61-.19,1.16-.33,1.63-.42.31-.06.58-.12.8-.17.14-.03.38-.08.71-.14.27-.08.88-.15,1.84-.22.96-.07,1.49-.08,1.6-.04.05.02.08.06.09.12s.02.13,0,.19c-.05.17-.28.26-.71.26-.58,0-1.44.12-2.56.37-1.12.24-1.91.48-2.35.72-.17.09-.45.18-.83.26-.3.08-.51.13-.64.17s-.26.03-.41-.01-.24-.08-.28-.13c-.04-.05-.08-.18-.13-.41-.05-.23-.07-.44-.07-.64v-1.03c-.02-.86,0-1.41.02-1.65.03-.24.11-.41.24-.52.08-.05.18-.07.31-.06ZM72.24,3.26c.13-.02.24.02.32.12.08.08.12,1.53.12,4.35s-.05,4.33-.14,4.52c-.08.2-.17.32-.28.34-.11.02-.2-.05-.26-.22-.13-.3-.2-1.83-.22-4.61-.02-2.77.03-4.22.15-4.33.08-.09.18-.15.32-.17Z"/>
      <path class="cls-1" d="M82.76,4.42c.22.02.36.06.42.11.19.16.15.31-.12.45-.14.08-.3.12-.47.12-.16,0-.45.04-.88.12-.43.08-.75.15-.96.21-.13.05-.47.18-1.04.4-.69.28-1.45.57-2.26.85-.38.13-.61.06-.68-.19-.06-.19.02-.39.24-.6.22-.21.5-.35.85-.41.24-.05.42-.09.54-.12.11-.05.24-.09.38-.14.19-.05.31-.09.38-.12.66-.28,1.49-.47,2.5-.57.47-.05.72-.08.73-.09.03-.03.16-.04.38-.01ZM88.14,15.02c.01.09-.03.17-.13.24-.1.06-.27.11-.51.14-.3.06-.58.13-.85.19-.11.03-.31.08-.59.14-.28.06-.45.1-.5.12-.13.02-.33.06-.62.13-.29.07-.46.11-.51.11-.09.03-.24.07-.44.11-.2.04-.32.07-.37.08-1.05.24-1.98.49-2.78.75-.68.22-1.23.43-1.67.64-.47.22-.88.37-1.23.44-.35.07-.55.05-.61-.06-.19-.35.05-.62.71-.83.22-.06.53-.18.92-.35.41-.19.86-.35,1.34-.5.49-.14,1.58-.43,3.28-.87.97-.25,1.87-.42,2.69-.52,1.23-.14,1.85-.13,1.86.05ZM78.71,6.63c.13,0,.2.06.24.17.03.11.02.33-.02.66-.05.42-.02.65.09.68.11.03.48-.07,1.11-.31.9-.35,1.66-.57,2.3-.68.64-.11.98-.07,1.03.12.05.19,0,.33-.17.44-.16.1-.45.18-.87.22-.52.06-1.07.2-1.65.41-.58.21-1.05.44-1.39.7-.22.16-.37.33-.46.51-.09.18-.18.54-.27,1.07-.06.36-.07.59-.02.7.05.1.17.12.38.06.58-.16,1.29-.37,2.12-.64.96-.3,1.53-.48,1.72-.54.75-.22,1.24-.24,1.46-.05.06.06.08.13.05.19-.03.08-.11.15-.25.2-.13.06-.52.17-1.17.34-.99.27-1.96.61-2.92,1.04-.24.11-.48.18-.73.21-.25.03-.48.08-.68.14-.41.13-.68.02-.8-.33s-.11-.93.05-1.75c.13-.69.13-1.12,0-1.3-.17-.24-.16-.43.05-.59.12-.08.2-.24.21-.5.05-.42.17-.77.35-1.04.05-.09.13-.14.26-.14Z"/>
      <path class="cls-2" d="M100.54,2.69c.19,0,.29.07.32.21.02.14-.05.27-.22.38-.19.09-.4.27-.62.52-.23.25-.41.49-.55.73-.22.38-.37.64-.45.78-.19.28-.39.68-.61,1.2-.22.52-.34.85-.35.99,0,.06-.04.17-.12.31-.06.14-.1.24-.12.31,0,.02-.03.09-.09.24-.08.19-.17.57-.27,1.14s-.14.93-.11,1.07c.08.38.31.62.7.73.38.11.88.06,1.5-.14.52-.17.99-.22,1.4-.14.42.08.7.26.84.54.09.16.15.49.15,1s-.03.9-.12,1.16c-.09.26-.13.44-.13.53,0,.05-.05.21-.14.47-.09.27-.18.47-.26.61-.06.13-.1.24-.12.35-.03.13-.11.31-.24.54-.36.69-.54,1.07-.54,1.13,0,.03-.05.08-.17.14-.11.06-.19.09-.24.07-.16-.06-.06-.52.28-1.37.08-.21.16-.45.24-.73.05-.19.14-.5.28-.92.11-.39.2-.82.26-1.29.06-.46.07-.77.02-.91-.08-.27-.2-.42-.35-.46-.16-.04-.46.02-.92.18-.9.3-1.69.29-2.37-.04s-1.03-.84-1.03-1.54c0-.39.14-1.08.42-2.08.16-.53.29-.91.4-1.13.09-.17.16-.34.19-.5.03-.14.06-.23.09-.26.03-.05.07-.15.12-.31.06-.17.1-.27.12-.31.03-.05.08-.15.14-.31.05-.17.09-.27.12-.31.03-.06.11-.21.24-.45s.24-.41.33-.52c.09-.09.22-.26.38-.49.34-.49.64-.73.87-.73.16,0,.28-.07.38-.21.09-.14.21-.21.35-.21Z"/>
      <path class="cls-2" d="M108.23,5.36s.07-.02.12-.02c.08-.05.15-.04.2.02.05.06.08.15.08.25s-.02.2-.07.29c-.17.27-.35,1.11-.52,2.52-.05.38-.09.61-.12.71-.06.14-.11.32-.15.54-.04.22-.05.35-.04.38.05.08.57.08,1.58,0,.68-.05,1.05,0,1.13.12.06.13.03.24-.09.35s-.33.2-.62.28-.62.13-1,.17c-.5.03-.81.08-.92.15-.11.07-.2.29-.28.67-.17.75-.26,1.55-.26,2.39s.09,1.42.26,1.73c.47.85,1.06,1.08,1.77.68.25-.14.48-.27.68-.38.17-.09.45-.27.83-.52.46-.28.71-.39.78-.33s-.09.29-.45.68c-.54.6-1.09,1.04-1.67,1.32-.2.11-.51.17-.91.19-.4.02-.68-.02-.84-.12-.19-.09-.41-.3-.66-.62-.25-.32-.43-.62-.54-.88-.05-.16-.08-.64-.09-1.44s0-1.38.05-1.72c.03-.28.06-.6.09-.94l.02-.4-.38.05c-.25.03-.54.1-.87.21-.11.03-.29.09-.55.19-.26.09-.42.16-.48.19-.82.27-1.22.22-1.2-.14,0-.06.02-.13.05-.19.05-.14.3-.33.75-.55.46-.23.79-.34,1.01-.34.11,0,.42-.06.93-.18.51-.12.8-.19.86-.22.03-.01.09-.21.17-.59.06-.39.14-.72.24-.99.09-.31.17-.74.21-1.27.13-1.35.4-2.09.83-2.22.03,0,.06,0,.09-.02Z"/>
      <path class="cls-2" d="M113.77,9.27c.11.14.11.35,0,.61-.11.25-.17.8-.18,1.64,0,.84.04,1.44.14,1.8.1.36.24.66.42.91.18.24.36.37.53.37.46,0,1.16-.46,2.12-1.39.39-.38.62-.62.7-.74.07-.12.12-.32.15-.6.03-.27.09-.54.17-.83.02-.08.05-.22.11-.44.05-.21.09-.35.11-.41.08-.3.17-.53.28-.68s.22-.24.33-.24.23.08.35.24c.12.19.16.6.11,1.24s-.15,1.04-.29,1.21c-.05.06-.12.22-.21.47-.09.25-.14.41-.14.47,0,.08-.03.21-.09.4-.08.27-.18,1.11-.31,2.52-.02.09-.03.22-.05.38-.05.49-.03.76.05.81.08.05.38,0,.92-.18.17-.05.31-.09.4-.12.25-.08.62-.17,1.11-.26.41-.09.71-.17.9-.21.24-.09.88-.24,1.93-.42.24-.03.48-.05.73-.07.35-.03.63-.06.85-.09.41-.06.61-.03.61.09,0,.11-.49.28-1.46.52-.41.09-.67.16-.78.19-.11.03-.35.09-.71.19-.83.17-1.34.31-1.51.4-.09.05-.28.1-.54.17-.6.13-1.27.34-2.03.64-.5.19-.77.34-.8.45,0,.02-.01.07-.04.15-.02.09-.05.19-.09.31-.04.12-.08.22-.11.32-.13.39-.24.76-.33,1.11-.11.31-.2.51-.27.59-.07.08-.11.15-.11.21,0,.19-.3.67-.9,1.44-.6.77-.99,1.19-1.18,1.25-.22.08-.44-.05-.67-.38-.23-.33-.4-.75-.51-1.26-.11-.51-.13-.96-.05-1.36.08-.28.12-.48.12-.59,0-.22.14-.5.41-.84.28-.34.57-.59.88-.77.14-.06.27-.15.4-.26.22-.16.7-.37,1.44-.64.22-.06.35-.16.4-.29.05-.13.07-.44.07-.93,0-.58.03-1.04.09-1.37.11-.55.1-.83-.02-.83-.16,0-.33.1-.52.31-.08.09-.26.24-.54.42-.66.42-1.22.62-1.69.58s-.87-.32-1.21-.84c-.35-.53-.52-1.51-.52-2.94s.17-2.24.52-2.44c.22-.14.38-.14.5,0ZM116.01,18.75c-.33.14-.67.36-1.03.66-.35.3-.6.58-.74.85-.11.25-.17.64-.18,1.17,0,.53.04.88.15,1.05.19.28.38.28.59,0,.05-.06.22-.3.52-.71.22-.31.39-.59.52-.83s.21-.39.26-.45c.06-.06.21-.46.45-1.2.11-.3.14-.49.09-.57-.09-.13-.31-.12-.64.02Z"/>
      <path class="cls-2" d="M129.95,3.02c.52.21.83.68.94,1.42.06.35.12.59.17.73.06.22.09.83.08,1.82,0,.99-.05,1.6-.13,1.84-.08.28-.15.59-.21.92-.06.36-.14.62-.24.78-.11.14-.17.27-.17.39s-.09.33-.28.65c-.24.42-.3.87-.2,1.34.1.47.4,1.12.91,1.93.17.28.33.56.47.83.11.21.25.45.42.73.13.17.19.3.2.38,0,.08-.03.15-.11.21-.11.11-.26.08-.45-.11s-.5-.6-.94-1.26c-.25-.36-.44-.62-.57-.78-.17-.22-.3-.44-.38-.66-.11-.31-.23-.51-.37-.58-.13-.07-.3-.03-.5.13-.2.16-.45.45-.77.87-.35.46-.87,1.03-1.57,1.72-.7.69-1.15,1.08-1.36,1.16-.44.19-.76.15-.97-.12-.17-.2-.13-.42.12-.64.13-.09.28-.24.45-.42.17-.17.37-.27.59-.31.19-.03.36-.11.51-.24s.47-.46.96-.99c.17-.17.38-.4.62-.67.24-.27.38-.42.41-.44.19-.22.43-.51.73-.88.3-.37.45-.57.45-.6s-.04-.2-.12-.5c-.2-.72-.31-1.32-.31-1.79,0-.25-.03-.5-.09-.75-.08-.28-.13-.68-.14-1.19-.02-.51,0-.91.07-1.19.06-.35.11-.62.14-.83.09-.85.25-1.53.47-2.04.22-.51.47-.81.75-.88.12-.03.25-.02.38.02ZM129.52,4.46c-.09.17-.17.38-.24.64-.16.72-.21,1.85-.15,3.38.05,1.53.18,2.33.39,2.39.03,0,.13-.16.31-.48s.26-.52.26-.6c0-.03.04-.14.12-.33.16-.33.27-.92.33-1.76.06-.84.05-1.52-.02-2.04-.03-.19-.07-.46-.12-.83-.05-.31-.11-.54-.19-.66-.22-.31-.45-.22-.68.28Z"/>
      <path class="cls-2" d="M134.36,5.46c.09.09.16.31.19.67.05.31.1.57.17.75.16.42.18.83.08,1.21s-.29.58-.58.58c-.09,0-.16-.05-.2-.17-.04-.11-.07-.34-.08-.71-.03-.46-.08-.75-.14-.87-.09-.22-.12-.48-.08-.79s.12-.51.25-.62c.17-.12.31-.14.4-.06ZM134.36,11.6c.11.08.17.28.17.59.03.97.11,1.7.24,2.17.06.3.09.82.09,1.56,0,.6-.02.98-.05,1.16s-.13.31-.28.4c-.36.24-.57.02-.64-.64-.02-.16-.02-.34,0-.57,0-.55-.02-.97-.07-1.27s-.08-.88-.09-1.75c-.02-.63-.02-1.01,0-1.13s.08-.24.19-.35c.19-.19.34-.24.45-.17Z"/>
      <path class="cls-2" d="M138.89,8.73c.17.17.17.42,0,.75-.14.27-.29.61-.45,1.01-.11.27-.2.46-.26.57-.08.16-.12.28-.12.38s-.04.2-.12.33c-.08.11-.12.23-.12.35,0,.11-.04.24-.12.4-.19.36-.24.59-.15.68.09.09.37.1.86.02.94-.14,1.53.02,1.77.47.06.13.09.35.08.68s-.05.57-.13.73c-.08.13-.12.22-.12.28,0,.17-.19.53-.57,1.07-.38.54-.68.88-.92,1.03-.19.11-.32.11-.4-.01-.08-.12-.05-.25.09-.41.2-.24.44-.68.72-1.33s.41-1.1.41-1.33c0-.22-.05-.35-.14-.38-.09-.03-.3,0-.61.09-.52.14-.95.17-1.3.07s-.57-.3-.66-.61c-.06-.2.05-.67.33-1.39.06-.2.09-.35.09-.42s.08-.29.25-.64.25-.55.25-.6.04-.17.13-.33c.09-.17.13-.29.13-.37s.05-.19.15-.34.15-.24.15-.27.06-.13.19-.31c.22-.3.41-.36.57-.19Z"/>
      <path class="cls-2" d="M146.6,5.36s.07-.02.12-.02c.08-.05.15-.04.2.02.05.06.08.15.08.25s-.02.2-.07.29c-.17.27-.35,1.11-.52,2.52-.05.38-.09.61-.12.71-.06.14-.11.32-.15.54-.04.22-.05.35-.04.38.05.08.57.08,1.58,0,.68-.05,1.05,0,1.13.12.06.13.03.24-.09.35s-.33.2-.62.28-.62.13-1,.17c-.5.03-.81.08-.92.15-.11.07-.2.29-.28.67-.17.75-.26,1.55-.26,2.39s.09,1.42.26,1.73c.47.85,1.06,1.08,1.77.68.25-.14.48-.27.68-.38.17-.09.45-.27.83-.52.46-.28.71-.39.78-.33s-.09.29-.45.68c-.54.6-1.09,1.04-1.67,1.32-.2.11-.51.17-.91.19-.4.02-.68-.02-.84-.12-.19-.09-.41-.3-.66-.62-.25-.32-.43-.62-.54-.88-.05-.16-.08-.64-.09-1.44s0-1.38.05-1.72c.03-.28.06-.6.09-.94l.02-.4-.38.05c-.25.03-.54.1-.87.21-.11.03-.29.09-.55.19-.26.09-.42.16-.48.19-.82.27-1.22.22-1.2-.14,0-.06.02-.13.05-.19.05-.14.3-.33.75-.55.46-.23.79-.34,1.01-.34.11,0,.42-.06.93-.18.51-.12.8-.19.86-.22.03-.01.09-.21.17-.59.06-.39.14-.72.24-.99.09-.31.17-.74.21-1.27.13-1.35.4-2.09.83-2.22.03,0,.06,0,.09-.02Z"/>
      <path class="cls-2" d="M152.23,0c.11.03.24.05.4.07.31.05.51.11.59.19s.12.23.12.45c0,.3-.02.46-.05.47-.05.03-.07.13-.07.28s-.02.24-.07.26c-.03.03-.05.09-.05.19s-.02.16-.07.19c-.03.03-.07.14-.12.33-.11.47-.24.86-.38,1.16-.09.22-.16.38-.19.5-.03.08-.13.19-.29.34s-.27.22-.32.22c-.11,0-.18-.06-.21-.18-.03-.12-.02-.26.05-.41.25-.64.42-1.14.5-1.49.03-.21.07-.42.12-.66.11-.46.05-.71-.17-.78-.13-.05-.22-.09-.28-.12-.08-.03-.16-.05-.24-.05-.27,0-.39-.09-.38-.26.02-.22.2-.41.57-.57.27-.11.45-.16.54-.14Z"/>
      <path class="cls-2" d="M156.78,8.73c.17.17.17.42,0,.75-.14.27-.29.61-.45,1.01-.11.27-.2.46-.26.57-.08.16-.12.28-.12.38s-.04.2-.12.33c-.08.11-.12.23-.12.35,0,.11-.04.24-.12.4-.19.36-.24.59-.15.68.09.09.37.1.86.02.94-.14,1.53.02,1.77.47.06.13.09.35.08.68s-.05.57-.13.73c-.08.13-.12.22-.12.28,0,.17-.19.53-.57,1.07-.38.54-.68.88-.92,1.03-.19.11-.32.11-.4-.01-.08-.12-.05-.25.09-.41.2-.24.44-.68.72-1.33s.41-1.1.41-1.33c0-.22-.05-.35-.14-.38-.09-.03-.3,0-.61.09-.52.14-.95.17-1.3.07s-.57-.3-.66-.61c-.06-.2.05-.67.33-1.39.06-.2.09-.35.09-.42s.08-.29.25-.64.25-.55.25-.6.04-.17.13-.33c.09-.17.13-.29.13-.37s.05-.19.15-.34.15-.24.15-.27.06-.13.19-.31c.22-.3.41-.36.57-.19Z"/>
      <path class="cls-2" d="M167.1,2.96c.05-.07.15-.11.28-.11s.23.04.29.12c.09.09.15.19.18.29.02.1.03.27.01.51-.02.3,0,.47.04.51.04.04.18.01.41-.08.74-.31,1.42-.38,2.04-.2.62.18.99.56,1.12,1.14.28,1.32-.14,2.75-1.27,4.29-.2.28-.49.61-.86.99-.37.38-.62.61-.77.71-.09.05-.29.22-.59.52-.3.31-.49.5-.57.54-.06.05-.1.12-.12.22s-.03.37-.05.79c-.05,1.96-.09,3.16-.12,3.58-.03.42-.1.67-.21.73-.13.09-.21,0-.26-.26-.06-.27-.12-.88-.17-1.84-.09-1.49-.08-2.93.05-4.32.06-.74.12-1.46.17-2.17.02-.55.04-.89.07-1.01.05-.11.08-.55.09-1.32s.05-1.42.09-1.96c.06-.63.09-1.07.07-1.32-.02-.17,0-.29.06-.37ZM169.2,4.81c-.4.09-.74.28-1.03.57-.21.22-.33.48-.39.77s-.11,1.03-.18,2.21c-.05.72-.09,1.16-.12,1.3-.03.09-.06.29-.08.59s-.03.58-.02.84c0,.26.03.39.06.39.06,0,.23-.18.5-.54.27-.35.47-.59.61-.73.28-.27.64-.71,1.06-1.34.42-.63.66-1.05.71-1.27.06-.22.11-.39.14-.52.05-.13.09-.42.12-.9.02-.44,0-.74-.04-.9-.04-.16-.15-.28-.32-.38-.28-.14-.62-.17-1.03-.07Z"/>
      <path class="cls-2" d="M173.97,5.46c.09.09.16.31.19.67.05.31.1.57.17.75.16.42.18.83.08,1.21s-.29.58-.58.58c-.09,0-.16-.05-.2-.17-.04-.11-.07-.34-.08-.71-.03-.46-.08-.75-.14-.87-.09-.22-.12-.48-.08-.79s.12-.51.25-.62c.17-.12.31-.14.4-.06ZM173.97,11.6c.11.08.17.28.17.59.03.97.11,1.7.24,2.17.06.3.09.82.09,1.56,0,.6-.02.98-.05,1.16s-.13.31-.28.4c-.36.24-.57.02-.64-.64-.02-.16-.02-.34,0-.57,0-.55-.02-.97-.07-1.27s-.08-.88-.09-1.75c-.02-.63-.02-1.01,0-1.13.02-.13.08-.24.19-.35.19-.19.34-.24.45-.17Z"/>
      <path class="cls-2" d="M181.73,9.84c.47.28.57.63.28,1.04-.17.22-.32.34-.45.37-.13.02-.28-.06-.45-.25-.5-.52-1.27-.38-2.29.4-.24.17-.51.46-.83.87-.32.41-.47.67-.47.78,0,.03-.05.11-.14.24-.16.24-.28.68-.38,1.32-.05.28.02.61.21.99.19.38.42.66.71.85.33.24.92.33,1.77.28.85-.05,1.7-.21,2.55-.5.19-.06.38-.12.58-.17.2-.05.35-.08.46-.08.11,0,.17.01.19.06,0,.11-.18.27-.53.47-.35.21-.7.36-1.05.47-.38.11-.68.21-.9.31-.41.19-1.04.28-1.89.28-1.92,0-2.88-.89-2.88-2.67,0-.64.18-1.38.55-2.2s.78-1.44,1.24-1.85c.68-.61,1.24-1,1.7-1.16.75-.27,1.42-.22,2,.14Z"/>
      <path class="cls-2" d="M185.56,3.27c.12.02.22.11.32.25.08.09.12.18.13.27,0,.09,0,.27-.01.55-.03.43-.04.94-.02,1.56v1.49c.02,1.24-.03,2.03-.14,2.36-.05.16-.06.35-.02.59.05.38.05,1.19.01,2.44s-.09,1.95-.15,2.11c-.05.13-.07.26-.07.41s-.03.33-.09.53c-.19.63-.28,1.05-.28,1.27,0,.08-.04.18-.13.29-.09.12-.16.18-.22.18-.11,0-.18-.19-.2-.57-.02-.38,0-.77.08-1.18.17-.75.26-3.17.26-7.24,0-2.06.02-3.37.05-3.93.03-.56.12-.98.26-1.26.05-.11.13-.15.25-.13ZM191.96,7.73c.17.1.18.32.02.65-.13.24-.48.67-1.06,1.31-.58.64-1.02,1.06-1.32,1.29-.25.21-.5.42-.75.66-.28.25-.53.43-.73.54-.55.33-.64.64-.28.92.46.33.82.55,1.08.66.17.05.36.14.57.28.19.14.42.26.68.35.22.08.57.28,1.05.59.48.31.84.58,1.07.8.24.2.44.35.61.45.17.09.28.21.33.35s0,.24-.12.28c-.06.03-.28-.05-.66-.24-.38-.19-.69-.38-.94-.57-.09-.06-.22-.13-.38-.21-.14-.08-.31-.18-.52-.31-.21-.16-.57-.34-1.11-.54-1.46-.6-2.37-1.14-2.74-1.62-.36-.48-.24-.99.38-1.54.25-.22.42-.35.52-.4.09-.05.28-.17.54-.38.2-.17.43-.34.68-.49.19-.11.35-.25.47-.42.11-.14.36-.42.75-.83.41-.47.66-.76.75-.87.13-.14.28-.31.47-.5.24-.25.44-.33.61-.22Z"/>
    </g>
    <path class="cls-1" d="M28.58,26.04c52.76-.65,111.95-.66,164.71,0-52.76.66-111.95.65-164.71,0h0Z"/>
  </g>
</svg>